<svg width="40" height="40" viewBox="0 0 40 40" fill="none" xmlns="http://www.w3.org/2000/svg">
<path d="M0 8C0 3.58172 3.58172 0 8 0H32C36.4183 0 40 3.58172 40 8V32C40 36.4183 36.4183 40 32 40H8C3.58172 40 0 36.4183 0 32V8Z" fill="#004C45"/>
<rect width="32" height="32" transform="translate(4 4)" fill="#004C45"/>
<path d="M34.9995 18.1416C34.9995 18.8642 34.4317 19.4527 33.7401 19.4469C33.052 19.4414 32.4957 18.8613 32.4922 18.1463C32.4887 17.4212 33.0474 16.8363 33.7443 16.8348C34.4411 16.8334 34.9995 17.415 34.9995 18.1412V18.1416Z" fill="white"/>
<path d="M5.20543 18.1299C5.20648 17.4117 5.76066 16.8356 6.45084 16.8348C7.14734 16.8337 7.70923 17.4146 7.71203 18.1383C7.71484 18.854 7.14173 19.4487 6.45119 19.4469C5.75821 19.4451 5.20403 18.8595 5.20508 18.1303L5.20543 18.1299Z" fill="white"/>
<path d="M5.00037 21.9471C5.00423 21.2358 5.56857 20.6553 6.25595 20.6553C6.94543 20.6553 7.51784 21.2536 7.51258 21.969C7.50767 22.6785 6.94438 23.2655 6.26156 23.2721C5.56542 23.279 4.99616 22.681 5.00002 21.9471H5.00037Z" fill="white"/>
<path d="M34.7956 21.9646C34.7949 22.6924 34.233 23.2772 33.5404 23.2714C32.8474 23.2656 32.29 22.6745 32.295 21.9508C32.2999 21.2344 32.8582 20.6553 33.5449 20.655C34.2425 20.655 34.7967 21.2347 34.7956 21.9643V21.9646Z" fill="white"/>
<path d="M28.3032 23.2251C27.619 23.2262 27.0764 22.665 27.0781 21.9584C27.0799 21.2635 27.6235 20.6968 28.2927 20.6925C28.9682 20.6881 29.5171 21.2598 29.5153 21.9657C29.5136 22.6686 28.979 23.224 28.3032 23.2251Z" fill="white"/>
<path d="M11.5094 23.2251C10.8206 23.2255 10.2864 22.6723 10.2871 21.9592C10.2878 21.2526 10.8353 20.6881 11.5146 20.6932C12.1803 20.6983 12.7261 21.2719 12.724 21.9646C12.7219 22.6628 12.1806 23.2247 11.5094 23.2251Z" fill="white"/>
<path d="M10.4922 18.1344C10.4929 17.4311 11.0267 16.8732 11.7001 16.8718C12.3787 16.8703 12.9262 17.4402 12.9224 18.1443C12.9185 18.8421 12.3787 19.4055 11.7085 19.4106C11.0355 19.4161 10.4915 18.8454 10.4922 18.1344Z" fill="white"/>
<path d="M29.7137 18.1397C29.7137 18.8379 29.1739 19.4064 28.5069 19.4104C27.8311 19.4144 27.2843 18.8459 27.2832 18.1383C27.2818 17.4317 27.8269 16.8683 28.5086 16.8712C29.1788 16.8741 29.7134 17.4368 29.7137 18.1397Z" fill="white"/>
<path d="M7.791 13.5067C8.41423 13.5074 8.89621 14.0136 8.89235 14.6633C8.88849 15.2978 8.39846 15.8079 7.7917 15.809C7.17723 15.8101 6.67879 15.2938 6.67774 14.655C6.67668 14.0125 7.16777 13.506 7.791 13.5067Z" fill="white"/>
<path d="M32.7888 13.5067C33.4103 13.5089 33.888 14.0147 33.8845 14.6677C33.881 15.3007 33.3878 15.8101 32.7807 15.809C32.1663 15.8076 31.6696 15.2894 31.6699 14.6506C31.6706 14.0125 32.167 13.5049 32.7888 13.5071V13.5067Z" fill="white"/>
<path d="M7.22535 26.5951C6.60071 26.5959 6.11523 26.0937 6.11523 25.4473C6.11523 24.7993 6.59896 24.2986 7.22429 24.2994C7.83736 24.3001 8.32354 24.8019 8.32774 25.4378C8.33195 26.0828 7.84437 26.5944 7.22535 26.5951Z" fill="white"/>
<path d="M33.3236 25.4495C33.3222 26.0934 32.8329 26.5962 32.2093 26.5951C31.5893 26.5941 31.1069 26.0853 31.1094 25.4356C31.1118 24.7932 31.6019 24.2968 32.2311 24.2994C32.8385 24.3016 33.3247 24.8136 33.3236 25.4498V25.4495Z" fill="white"/>
<path d="M14.1217 14.6639C14.1154 15.3035 13.6317 15.786 13.0039 15.7787C12.4098 15.7717 11.9432 15.2649 11.9513 14.6355C11.959 14.0168 12.4508 13.5124 13.0397 13.519C13.6401 13.5255 14.1277 14.0415 14.1217 14.6639Z" fill="white"/>
<path d="M13.5526 25.4487C13.5519 26.0799 13.066 26.5838 12.4635 26.5776C11.8676 26.5714 11.3846 26.0711 11.379 25.4545C11.373 24.8248 11.8742 24.3092 12.4838 24.3169C13.0818 24.3245 13.5533 24.8237 13.5526 25.4487Z" fill="white"/>
<path d="M25.8809 25.4523C25.8784 24.8226 26.3611 24.3176 26.9664 24.3168C27.562 24.3161 28.0489 24.8157 28.0545 25.433C28.0604 26.0689 27.5693 26.5816 26.9587 26.578C26.3618 26.5743 25.8833 26.0747 25.8809 25.4523Z" fill="white"/>
<path d="M27.5241 15.7784C26.9138 15.7759 26.4452 15.281 26.4473 14.6411C26.4494 14.0264 26.9366 13.5217 27.5311 13.5191C28.1256 13.5166 28.6219 14.0351 28.6209 14.6575C28.6198 15.2861 28.1354 15.781 27.5241 15.7784Z" fill="white"/>
<path d="M30.1458 29.2557C29.6 29.2546 29.1555 28.7958 29.1524 28.2299C29.1489 27.6552 29.5947 27.1942 30.1528 27.1957C30.7083 27.1971 31.1507 27.6618 31.1447 28.2375C31.1388 28.8042 30.6947 29.2571 30.1458 29.2557Z" fill="white"/>
<path d="M8.00391 28.2303C8.00356 27.6487 8.44136 27.1939 9.00115 27.1954C9.55252 27.1968 9.98717 27.6465 9.99103 28.2194C9.99453 28.7955 9.55182 29.2557 8.99414 29.2554C8.44627 29.255 8.00461 28.7973 8.00426 28.2303H8.00391Z" fill="white"/>
<path d="M25.8914 28.2204C25.8939 28.7907 25.4575 29.252 24.9114 29.2557C24.353 29.2593 23.9057 28.8031 23.9043 28.2284C23.9029 27.657 24.3379 27.1993 24.8865 27.1957C25.4494 27.1917 25.889 27.6399 25.8914 28.2204Z" fill="white"/>
<path d="M14.1094 11.8734C14.1111 11.2965 14.5577 10.8407 15.1157 10.8465C15.6633 10.852 16.106 11.3169 16.1018 11.881C16.0976 12.4455 15.652 12.9079 15.1087 12.9123C14.5591 12.9163 14.108 12.4473 14.1094 11.8738V11.8734Z" fill="white"/>
<path d="M9.85524 10.8465C10.4035 10.8472 10.8444 11.3027 10.8479 11.8712C10.8511 12.4433 10.3978 12.9156 9.84928 12.9123C9.2979 12.9087 8.84888 12.4353 8.85554 11.8646C8.8622 11.2976 9.30561 10.8458 9.85524 10.8465Z" fill="white"/>
<path d="M24.7637 11.869C24.7654 11.2984 25.2025 10.8469 25.7532 10.8465C26.3133 10.8465 26.7476 11.3005 26.7448 11.8843C26.742 12.4546 26.3042 12.9101 25.7564 12.9123C25.206 12.9145 24.7619 12.4477 24.7637 11.869Z" fill="white"/>
<path d="M15.2359 28.2132C15.2383 28.7988 14.8061 29.2546 14.2481 29.2554C13.6999 29.2561 13.26 28.8068 13.2502 28.2361C13.2403 27.6662 13.6901 27.195 14.2435 27.1954C14.8002 27.1957 15.2334 27.64 15.2359 28.2132Z" fill="white"/>
<path d="M31.9908 11.8869C31.9891 12.4583 31.5516 12.9124 31.0031 12.912C30.4503 12.912 30.0135 12.4496 30.0156 11.8669C30.0177 11.293 30.4513 10.8455 31.0045 10.8462C31.5664 10.8469 31.9922 11.2966 31.9905 11.8866L31.9908 11.8869Z" fill="white"/>
<path d="M27.4326 31.1808C26.9531 31.183 26.5595 30.7836 26.5528 30.288C26.5458 29.7847 26.9377 29.3682 27.4218 29.3642C27.9069 29.3606 28.2988 29.7683 28.2988 30.276C28.2988 30.7752 27.9125 31.1782 27.433 31.1804L27.4326 31.1808Z" fill="white"/>
<path d="M17.8264 8.92102C18.314 8.92285 18.6996 9.33171 18.6939 9.84115C18.6887 10.3367 18.2933 10.7409 17.8176 10.7372C17.3409 10.7336 16.9501 10.3269 16.9473 9.83167C16.9441 9.32843 17.3395 8.91884 17.8267 8.92066L17.8264 8.92102Z" fill="white"/>
<path d="M23.0483 30.2771C23.0483 30.7803 22.6679 31.1782 22.186 31.1808C21.6994 31.1833 21.3118 30.781 21.3086 30.2701C21.3055 29.7771 21.6973 29.3679 22.1751 29.3646C22.6634 29.3613 23.049 29.764 23.0486 30.2771H23.0483Z" fill="white"/>
<path d="M13.4437 9.83714C13.4416 10.3367 13.055 10.7376 12.5747 10.7376C12.0945 10.7376 11.6893 10.3134 11.6974 9.81855C11.7054 9.3215 12.097 8.92102 12.5747 8.92102C13.0655 8.92102 13.4458 9.32187 13.4437 9.83677V9.83714Z" fill="white"/>
<path d="M11.5064 29.3646C11.9905 29.366 12.3806 29.7793 12.375 30.2851C12.3697 30.7854 11.9838 31.1811 11.5018 31.1808C11.0157 31.1808 10.6269 30.7697 10.6329 30.2621C10.6385 29.7625 11.0276 29.3631 11.506 29.3646H11.5064Z" fill="white"/>
<path d="M27.6332 9.83126C27.6325 9.31563 28.0131 8.91843 28.5049 8.92134C28.983 8.92426 29.3711 9.32765 29.3735 9.8247C29.376 10.3254 28.975 10.7415 28.4937 10.7375C28.011 10.7335 27.6335 10.336 27.6328 9.83126H27.6332Z" fill="white"/>
<path d="M14.5938 8.72428C14.5938 8.33109 14.878 8.0381 15.258 8.03993C15.6264 8.04175 15.9117 8.33546 15.9156 8.71663C15.9194 9.10253 15.6264 9.41228 15.2562 9.4141C14.8819 9.41592 14.5934 9.11529 14.5938 8.72428Z" fill="white"/>
<path d="M24.0918 31.3666C24.0943 30.9891 24.3841 30.6856 24.7462 30.6823C25.1094 30.679 25.414 30.996 25.4136 31.3772C25.4129 31.7631 25.1178 32.0667 24.7452 32.0648C24.3708 32.063 24.0894 31.7624 24.0918 31.367V31.3666Z" fill="white"/>
<path d="M14.07 32.0309C13.7156 32.0324 13.4345 31.7423 13.4355 31.3761C13.4366 31.0106 13.723 30.7136 14.07 30.7183C14.4188 30.7231 14.7023 31.0237 14.6985 31.3848C14.6946 31.7397 14.4128 32.0294 14.07 32.0309Z" fill="white"/>
<path d="M20.5029 8.07635C20.8675 8.07708 21.1272 8.35112 21.1251 8.73229C21.123 9.09596 20.8545 9.37583 20.5057 9.37765C20.1489 9.37983 19.8727 9.09523 19.873 8.72536C19.8734 8.34857 20.1387 8.07526 20.5029 8.07599V8.07635Z" fill="white"/>
<path d="M25.9549 8.07631C26.3023 8.08142 26.5722 8.36966 26.5683 8.73042C26.5645 9.09738 26.2816 9.38235 25.9265 9.37797C25.5718 9.37324 25.2991 9.07952 25.3068 8.71002C25.3145 8.34015 25.5897 8.07085 25.9549 8.07631Z" fill="white"/>
<path d="M18.873 31.3677C18.8759 31.0026 19.1647 30.7104 19.5142 30.7187C19.8573 30.7271 20.1314 31.0186 20.1321 31.3758C20.1328 31.7427 19.8517 32.0332 19.498 32.0313C19.144 32.0291 18.8702 31.7387 18.8734 31.3677H18.873Z" fill="white"/>
<path d="M23.2437 7.74837C23.5739 7.75055 23.833 8.0162 23.8365 8.35692C23.84 8.70019 23.5697 8.98589 23.2399 8.98844C22.9093 8.99099 22.6433 8.71149 22.6426 8.3613C22.6422 8.00746 22.8985 7.74618 23.2437 7.74837Z" fill="white"/>
<path d="M16.7592 32.3589C16.4209 32.3549 16.1658 32.0812 16.17 31.7273C16.1742 31.3797 16.4465 31.1053 16.7792 31.1144C17.1031 31.1232 17.3632 31.4019 17.3628 31.7394C17.3628 32.0852 17.0922 32.3629 16.7592 32.3589Z" fill="white"/>
</svg>
