<svg class="icon" xmlns="http://www.w3.org/2000/svg" viewBox="7.71875 7.4375 16.84375 17.0625" fill="none" aria-hidden="true">
  <path d="M16.4062 8.375L23.6562 13.125C23.9375 13.3125 24.0625 13.6562 23.9688 13.9688C23.875 14.2812 23.5938 14.5 23.25 14.5H22V19.5H22.25C22.6562 19.5 23 19.8438 23 20.25C23 20.6562 22.6562 21 22.25 21H9.75C9.34375 21 9 20.6562 9 20.25C9 19.8438 9.34375 19.5 9.75 19.5H10V14.5H8.75C8.40625 14.5 8.125 14.2812 8.03125 13.9688C7.9375 13.6562 8.0625 13.3125 8.34375 13.125L15.5938 8.375C15.8438 8.21875 16.1562 8.21875 16.4062 8.375ZM13.5 19.5V14.5H11.5V19.5H13.5ZM17 19.5V14.5H15V19.5H17ZM20.5 19.5V14.5H18.5V19.5H20.5ZM15.125 13C15.0625 12.8438 15 12.6875 15 12.5C15 11.9375 15.4375 11.5 16 11.5C16.5625 11.5 17 11.9375 17 12.5C17 12.6875 16.9375 12.8438 16.875 13H20.75L16 9.90625L11.25 13H15.125ZM8 23.25C8 22.8438 8.34375 22.5 8.75 22.5H23.25C23.6562 22.5 24 22.8438 24 23.25C24 23.6562 23.6562 24 23.25 24H8.75C8.34375 24 8 23.6562 8 23.25Z" fill="currentColor"/>
</svg>
