<svg class="icon" xmlns="http://www.w3.org/2000/svg" viewBox="7.5 7.5 17.0625 17.0625" fill="none" aria-hidden="true">
  <path d="M19.5 14.5C19.5 11.75 17.25 9.5 14.5 9.5C11.75 9.5 9.5 11.75 9.5 14.5C9.5 17.25 11.75 19.5 14.5 19.5C17.25 19.5 19.5 17.25 19.5 14.5ZM18.5312 19.5938C17.4375 20.4688 16.0312 21 14.5 21C10.9062 21 8 18.0938 8 14.5C8 10.9062 10.9062 8 14.5 8C18.0938 8 21 10.9062 21 14.5C21 16.0312 20.4688 17.4375 19.5938 18.5312L23.7812 22.7188C24.0625 23 24.0625 23.5 23.7812 23.7812C23.5 24.0625 23 24.0625 22.7188 23.7812L18.5312 19.5938Z" fill="currentColor"/>
</svg>
