<svg class="icon" xmlns="http://www.w3.org/2000/svg" viewBox="7.5 7.5 17.0 17.0" fill="none" aria-hidden="true">
  <path d="M16.1875 8C16.7188 8 17.2188 8.21875 17.5938 8.59375L21.4062 12.4062C21.7812 12.7812 22 13.3125 22 13.8125V22C22 23.0938 21.0938 24 20 24H12C10.9062 24 10 23.0938 10 22V10C10 8.90625 10.9062 8 12 8H16.1875ZM12 9.5C11.7188 9.5 11.5 9.71875 11.5 10V22C11.5 22.2812 11.7188 22.5 12 22.5H20C20.2812 22.5 20.5 22.2812 20.5 22V14.5H17.75C16.5 14.5 15.5 13.5 15.5 12.25V9.5H12ZM17.1562 16.25C17.4062 15.9062 17.875 15.8438 18.1875 16.0938C18.5312 16.3125 18.5938 16.7812 18.375 17.125L15.9688 20.4062C15.8438 20.5938 15.6562 20.6875 15.4375 20.7188C15.2188 20.7188 15 20.625 14.8438 20.4688L13.7188 19.3125C13.4375 19.0312 13.4375 18.5312 13.7188 18.25C14.0312 17.9688 14.5 17.9688 14.7812 18.2812L15.2812 18.7812L17.1562 16.25ZM17 12.25C17 12.6562 17.3438 13 17.75 13H19.875L17 10.125V12.25Z" fill="currentColor"/>
</svg>
