<svg class="icon" xmlns="http://www.w3.org/2000/svg" viewBox="6.5 6.5 19.0 19.0" fill="none" aria-hidden="true">
  <path d="M8.5 21C8.5 21.2812 8.71875 21.5 9 21.5H10C10 20.125 11.125 19 12.5 19H14.5C15.875 19 17 20.125 17 21.5H23C23.2812 21.5 23.5 21.2812 23.5 21V13H8.5V21ZM9 9H23C24.0938 9 25 9.90625 25 11V21C25 22.0938 24.0938 23 23 23H9C7.90625 23 7 22.0938 7 21V11C7 9.90625 7.90625 9 9 9ZM13.5 17.75C12.5312 17.75 11.75 16.9688 11.75 16C11.75 15.0312 12.5312 14.25 13.5 14.25C14.4688 14.25 15.25 15.0312 15.25 16C15.25 16.9688 14.4688 17.75 13.5 17.75ZM18.75 14.5H21.25C21.6562 14.5 22 14.8438 22 15.25C22 15.6562 21.6562 16 21.25 16H18.75C18.3438 16 18 15.6562 18 15.25C18 14.8438 18.3438 14.5 18.75 14.5ZM18.75 17.5H21.25C21.6562 17.5 22 17.8438 22 18.25C22 18.6562 21.6562 19 21.25 19H18.75C18.3438 19 18 18.6562 18 18.25C18 17.8438 18.3438 17.5 18.75 17.5Z" fill="currentColor"/>
</svg>
