<svg class="icon" xmlns="http://www.w3.org/2000/svg" width="24" height="24" viewBox="0 0 24 24" fill="none" aria-hidden="true"><g ><path d="M11.375 2.23438C11.7266 1.92188 12.2734 1.92188 12.625 2.23438L21.6875 10.3594C22.0781 10.7109 22.1172 11.2969 21.7656 11.6875C21.4141 12.0781 20.8281 12.1172 20.4375 11.7656L20.125 11.4922V19.5C20.125 20.8672 18.9922 22 17.625 22H6.37499C5.00781 22 3.87499 20.8672 3.87499 19.5V11.4922L3.56249 11.7656C3.17187 12.1172 2.58593 12.0781 2.23437 11.6875C1.88281 11.2969 1.92187 10.7109 2.31249 10.3594L11.375 2.23438ZM12 4.1875L5.74999 9.8125V19.5C5.74999 19.8516 6.02343 20.125 6.37499 20.125H8.24999V16.0625C8.24999 14.5 9.49999 13.25 11.0625 13.25H12.9375C14.5 13.25 15.75 14.5 15.75 16.0625V20.125H17.625C17.9766 20.125 18.25 19.8516 18.25 19.5V9.8125L12 4.1875ZM10.125 20.125H13.875V16.0625C13.875 15.5547 13.4453 15.125 12.9375 15.125H11.0625C10.5547 15.125 10.125 15.5547 10.125 16.0625V20.125Z" fill="currentColor"/></g></svg>
