<svg class="icon" xmlns="http://www.w3.org/2000/svg" viewBox="7.5 7.5 17.0 17.0" fill="none" aria-hidden="true">
  <path d="M12 9.5C11.7188 9.5 11.5 9.71875 11.5 10V22C11.5 22.2812 11.7188 22.5 12 22.5H20C20.2812 22.5 20.5 22.2812 20.5 22V14.5H17.75C16.5 14.5 15.5 13.5 15.5 12.25V9.5H12ZM17 10.125V12.25C17 12.6562 17.3438 13 17.75 13H19.875L17 10.125ZM12 8H16.1875C16.7188 8 17.2188 8.21875 17.5938 8.59375L21.4062 12.4062C21.7812 12.7812 22 13.3125 22 13.8438V22C22 23.0938 21.0938 24 20 24H12C10.9062 24 10 23.0938 10 22V10C10 8.90625 10.9062 8 12 8ZM18.2188 18C18.2188 18.4688 18.0938 18.9375 17.875 19.3125L19.0312 20.4688C19.3125 20.7812 19.3125 21.25 19.0312 21.5312C18.75 21.8438 18.25 21.8438 17.9688 21.5312L16.8125 20.375C16.4062 20.5938 15.9688 20.7188 15.5 20.7188C14 20.7188 12.8125 19.5 12.8125 18C12.8125 16.5 14 15.3125 15.5 15.3125C17 15.3125 18.2188 16.5 18.2188 18ZM15.5 16.6875C14.7812 16.6875 14.1875 17.2812 14.1875 18C14.1875 18.7188 14.7812 19.3125 15.5 19.3125C16.2188 19.3125 16.8125 18.7188 16.8125 18C16.8125 17.2812 16.2188 16.6875 15.5 16.6875Z" fill="currentColor"/>
</svg>
