<svg xmlns="http://www.w3.org/2000/svg" aria-hidden="true">
  <!-- Lucide-style sidebar icons — mirrored in pages/preview/index.html sprite -->
  <symbol id="ds-i-buttons" viewBox="0 0 24 24"><rect fill="none" stroke="currentColor" stroke-width="2" x="2" y="7" width="20" height="10" rx="2"/></symbol>
  <symbol id="ds-i-inputs" viewBox="0 0 24 24"><path fill="none" stroke="currentColor" stroke-width="2" stroke-linecap="round" d="M17 22h-1a4 4 0 0 1-4-4V6a4 4 0 0 1 4-4h1"/><path fill="none" stroke="currentColor" stroke-width="2" stroke-linecap="round" d="M7 22h1a4 4 0 0 0 4-4v-1"/><path fill="none" stroke="currentColor" stroke-width="2" stroke-linecap="round" d="M7 2h1a4 4 0 0 1 4 4v1"/></symbol>
  <symbol id="ds-i-controls" viewBox="0 0 24 24"><rect fill="none" stroke="currentColor" stroke-width="2" x="2" y="6" width="20" height="12" rx="6"/><circle cx="8" cy="12" r="2" fill="none" stroke="currentColor" stroke-width="2"/></symbol>
  <symbol id="ds-i-tags" viewBox="0 0 24 24"><path fill="none" stroke="currentColor" stroke-width="2" stroke-linecap="round" stroke-linejoin="round" d="M12.586 2.586A2 2 0 0 0 11.172 2H4a2 2 0 0 0-2 2v7.172a2 2 0 0 0 .586 1.414l8.704 8.704a2.426 2.426 0 0 0 3.42 0l6.58-6.58a2.426 2.426 0 0 0 0-3.42z"/><circle cx="7.5" cy="7.5" r=".5" fill="currentColor" stroke="none"/></symbol>
  <symbol id="ds-i-navigation" viewBox="0 0 24 24"><rect fill="none" stroke="currentColor" stroke-width="2" stroke-linejoin="round" x="3" y="3" width="18" height="18" rx="2"/><path fill="none" stroke="currentColor" stroke-width="2" stroke-linecap="round" d="M9 3v18"/></symbol>
  <symbol id="ds-i-disclosure" viewBox="0 0 24 24"><rect fill="none" stroke="currentColor" stroke-width="2" stroke-linejoin="round" x="3" y="3" width="18" height="18" rx="2"/><path fill="none" stroke="currentColor" stroke-width="2" stroke-linecap="round" d="M3 9h18"/><path fill="none" stroke="currentColor" stroke-width="2" stroke-linecap="round" stroke-linejoin="round" d="m9 15 3 3 3-3"/></symbol>
  <symbol id="ds-i-data" viewBox="0 0 24 24"><rect fill="none" stroke="currentColor" stroke-width="2" stroke-linejoin="round" x="3" y="3" width="18" height="18" rx="2"/><path fill="none" stroke="currentColor" stroke-width="2" stroke-linecap="round" d="M3 9h18M3 15h18M12 3v18"/></symbol>
  <symbol id="ds-i-typography" viewBox="0 0 24 24"><path fill="none" stroke="currentColor" stroke-width="2" stroke-linecap="round" stroke-linejoin="round" d="M4 7V4h16v3"/><path fill="none" stroke="currentColor" stroke-width="2" stroke-linecap="round" d="M9 20h6"/><path fill="none" stroke="currentColor" stroke-width="2" stroke-linecap="round" d="M12 4v16"/></symbol>
  <symbol id="ds-i-tokens" viewBox="0 0 24 24"><path fill="none" stroke="currentColor" stroke-width="2" stroke-linecap="round" stroke-linejoin="round" d="M12 22a7 7 0 0 0 7-7c0-2-1-3.9-3-5.5S13 7 12 2c-1 5-2 6.4-4 8.5S5 17 5 15a7 7 0 0 0 7 7z"/></symbol>
</svg>
