<svg width="24" height="24" viewBox="0 0 24 24" fill="none" xmlns="http://www.w3.org/2000/svg">
<g clip-path="url(#clip0_708_11473)">
<path d="M15.1349 4.16016C15.3012 4.16016 15.4616 4.22613 15.5792 4.34375C15.6966 4.46133 15.7628 4.62092 15.7628 4.78711C15.7628 4.95329 15.6966 5.11288 15.5792 5.23047C15.4616 5.34809 15.3012 5.41406 15.1349 5.41406H14.5079V9.87695L19.3448 17.9404H19.3468C19.4609 18.1308 19.5227 18.3484 19.5255 18.5703C19.5282 18.7921 19.4717 19.011 19.3624 19.2041C19.2532 19.3968 19.0948 19.5572 18.9034 19.6689C18.7118 19.7806 18.4934 19.8398 18.2716 19.8398H5.72765C5.50593 19.8395 5.28819 19.7799 5.09679 19.668C4.90551 19.5561 4.74687 19.3959 4.6378 19.2031C4.52871 19.01 4.47281 18.791 4.47569 18.5693C4.47857 18.3476 4.54034 18.1306 4.6544 17.9404L9.49034 9.87695V5.41406H8.86339C8.69706 5.41406 8.53765 5.34807 8.42003 5.23047C8.30241 5.11284 8.23643 4.95345 8.23643 4.78711C8.23646 4.6208 8.30243 4.46135 8.42003 4.34375C8.53764 4.2262 8.6971 4.16016 8.86339 4.16016H15.1349ZM10.7452 5.41406V10.0508C10.7455 10.1643 10.714 10.2758 10.6554 10.373L8.73741 13.5742C9.84818 13.6127 11.0352 13.9471 12.2823 14.5781C14.0602 15.478 15.3982 15.5568 16.339 15.3711L13.3429 10.373C13.2843 10.2759 13.2539 10.1642 13.254 10.0508V5.41406H10.7452Z" fill="white"/>
</g>
<defs>
<clipPath id="clip0_708_11473">
<rect width="16" height="16" fill="white" transform="translate(4 4)"/>
</clipPath>
</defs>
</svg>
