<svg width="98" height="24" viewBox="0 0 98 24" fill="none" xmlns="http://www.w3.org/2000/svg">
<g clip-path="url(#clip0)">
<path d="M96.7911 22.0699H96.5294V22.4327H96.7911C96.9071 22.4327 96.9874 22.3643 96.9874 22.2513C96.9874 22.1383 96.9071 22.0699 96.7911 22.0699ZM96.9963 23.0721L96.7524 22.5814H96.5323V23.0721H96.3569V21.9093H96.806C97.026 21.9093 97.1658 22.052 97.1658 22.2483C97.1658 22.4149 97.0647 22.5219 96.9338 22.5576L97.2015 23.0721H96.9963ZM96.7227 21.5465C96.1963 21.5465 95.768 21.9747 95.768 22.5011C95.768 23.0275 96.1963 23.4558 96.7227 23.4558C97.2491 23.4558 97.6773 23.0275 97.6773 22.5011C97.6773 21.9747 97.2491 21.5465 96.7227 21.5465ZM96.7227 23.6015C96.116 23.6015 95.6193 23.1078 95.6193 22.4981C95.6193 21.8885 96.113 21.3948 96.7227 21.3948C97.3324 21.3948 97.826 21.8885 97.826 22.4981C97.826 23.1078 97.3324 23.6015 96.7227 23.6015ZM5.46617 23.6015H13.6803V22.7777C12.2439 22.4119 11.5747 21.5881 11.5747 19.6342V2.60223H13.4364C15.8186 2.60223 17.3145 3.7026 18.1086 5.77844H19.1167V0.77026H0V5.77844H1.03792C1.83197 3.7026 3.32788 2.60223 5.71004 2.60223H7.57175V19.6312C7.57175 21.5851 6.86989 22.4089 5.46617 22.7747V23.5985V23.6015ZM17.2164 23.6015H23.6907V22.7777C22.6231 22.4416 22.0729 21.7993 22.0729 19.8781V11.1465C22.9888 10.2929 23.3249 10.0461 23.5985 9.92416C23.8721 11.1465 24.6662 12.0625 25.8587 12.0625C27.1108 12.0625 28.0862 11.0245 28.0862 9.71004C28.0862 8.39554 27.1703 7.42007 25.826 7.42007C24.91 7.42007 23.9316 7.90781 22.0699 9.49591V7.32788L17.2164 8.97547V9.79926C18.0401 10.1056 18.5279 10.7777 18.5279 12.9428V19.8751C18.5279 21.7993 18.1323 22.4089 17.2164 22.7747V23.5985V23.6015ZM29.2104 9.79926C30.1264 10.1651 30.5219 10.7777 30.5219 12.6097V19.1138C30.5219 22.2572 31.9881 23.9078 34.7955 23.9078C36.8119 23.9078 38.397 23.084 40.0178 21.4335V23.997L44.9338 22.745V21.9212C44.0178 21.5554 43.5599 20.9428 43.5599 19.0513V7.32788L38.7063 8.97547V9.79926C39.652 10.1651 40.0506 10.7777 40.0506 12.6097L40.0208 19.6937C38.6766 21.0379 37.5465 21.6773 36.2349 21.6773C34.8312 21.6773 34.0372 20.9755 34.0372 18.8669V7.32788L29.2134 8.97547V9.79926H29.2104ZM46.7331 23.6015H52.9011V22.7777C52.0773 22.4119 51.5569 21.7993 51.5569 19.8781V0L46.7331 1.6803V2.47435C47.5569 2.84015 48.0446 3.45279 48.0446 5.37398V19.8781C48.0446 21.8022 47.5569 22.4119 46.7331 22.7777V23.6015ZM54.9413 23.6015H61.1093V22.7777C60.2855 22.4119 59.7978 21.7993 59.7978 19.8781V7.2684L54.9442 8.9487V9.74275C55.768 10.1086 56.2885 10.7212 56.2885 12.6424V19.8781C56.2885 21.8022 55.768 22.4119 54.9442 22.7777V23.6015H54.9413ZM55.3368 3.02156C55.3368 4.39554 56.4669 5.49591 57.8112 5.49591C59.1554 5.49591 60.2855 4.39554 60.2855 3.02156C60.2855 1.64758 59.1851 0.547212 57.8112 0.547212C56.4372 0.547212 55.3368 1.64758 55.3368 3.02156ZM70.7509 7.57175C65.7755 7.57175 62.6587 10.8699 62.6587 15.8454C62.6587 20.8208 65.6803 23.9048 70.4446 23.9048C75.2089 23.9048 78.5368 20.577 78.5368 15.5688C78.5368 10.5606 75.5152 7.56877 70.7509 7.56877V7.57175ZM70.7212 22.748C68.2796 22.748 66.6915 19.9703 66.6915 15.3576C66.6915 11.2654 68.0357 8.7316 70.3851 8.7316C72.8595 8.7316 74.5071 11.542 74.5071 16.0297C74.5071 20.2736 73.0409 22.748 70.7212 22.748ZM88.1903 7.57175C83.2149 7.57175 80.0981 10.8699 80.0981 15.8454C80.0981 20.6989 83.1197 23.9048 87.8543 23.9048C92.5889 23.9048 95.9762 20.577 95.9762 15.5688C95.9762 10.5606 92.8922 7.56877 88.1903 7.56877V7.57175ZM88.1606 22.748C85.719 22.748 84.1011 19.9703 84.1011 15.3576C84.1011 11.2654 85.4751 8.7316 87.7948 8.7316C90.2691 8.7316 91.9167 11.542 91.9167 16.0297C91.9167 20.2736 90.4803 22.748 88.1606 22.748Z" fill="#172D2D"/>
</g>
<defs>
<clipPath id="clip0">
<rect width="97.8231" height="24" fill="white"/>
</clipPath>
</defs>
</svg>
