<svg width="150" height="24" viewBox="0 0 150 24" fill="none" xmlns="http://www.w3.org/2000/svg">
<path d="M91.1349 21.4815H90.8885V21.8231H91.1349C91.2441 21.8231 91.3198 21.7587 91.3198 21.6523C91.3198 21.5459 91.2441 21.4815 91.1349 21.4815ZM91.3282 22.4252L91.0985 21.9631H90.8913V22.4252H90.7261V21.3303H91.1489C91.3562 21.3303 91.4878 21.4647 91.4878 21.6495C91.4878 21.8063 91.3926 21.9071 91.2693 21.9407L91.5214 22.4252H91.3282ZM91.0677 20.9887C90.5721 20.9887 90.1689 21.3919 90.1689 21.8875C90.1689 22.3832 90.5721 22.7864 91.0677 22.7864C91.5634 22.7864 91.9666 22.3832 91.9666 21.8875C91.9666 21.3919 91.5634 20.9887 91.0677 20.9887ZM91.0677 22.9264C90.4965 22.9264 90.0289 22.4616 90.0289 21.8875C90.0289 21.3135 90.4937 20.8487 91.0677 20.8487C91.6418 20.8487 92.1066 21.3135 92.1066 21.8875C92.1066 22.4616 91.6418 22.9264 91.0677 22.9264ZM5.14675 22.9236H12.8809V22.1479C11.5284 21.8035 10.8983 21.0279 10.8983 19.1881V3.15146H12.6513C14.8942 3.15146 16.3027 4.18753 17.0503 6.14206H17.9996V1.42654H0V6.14206H0.977266C1.72492 4.18753 3.13341 3.15146 5.37636 3.15146H7.12928V19.1853C7.12928 21.0251 6.46844 21.8007 5.14675 22.1451V22.9208V22.9236ZM16.2103 22.9236H22.3063V22.1479C21.301 21.8315 20.783 21.2267 20.783 19.4178V11.1964C21.6455 10.3927 21.9619 10.1603 22.2195 10.0455C22.4771 11.1964 23.2248 12.0589 24.3476 12.0589C25.5265 12.0589 26.445 11.0816 26.445 9.84391C26.445 8.60623 25.5825 7.68776 24.3168 7.68776C23.4544 7.68776 22.5331 8.147 20.7802 9.6423V7.60096L16.2103 9.15226V9.92792C16.9859 10.2163 17.4452 10.8492 17.4452 12.8877V19.415C17.4452 21.2267 17.0728 21.8007 16.2103 22.1451V22.9208V22.9236ZM27.5063 9.93072C28.3687 10.2751 28.7411 10.852 28.7411 12.5769V18.7009C28.7411 21.6607 30.1216 23.2148 32.765 23.2148C34.6635 23.2148 36.156 22.4392 37.6821 20.8851V23.2988L42.3109 22.1199V21.3443C41.4484 20.9999 41.0172 20.423 41.0172 18.6421V7.60096L36.4473 9.15226V9.92792C37.3377 10.2723 37.7129 10.8492 37.7129 12.5741L37.6849 19.2441C36.4193 20.5098 35.3552 21.1119 34.1203 21.1119C32.7986 21.1119 32.051 20.451 32.051 18.4657V7.60096L27.5091 9.15226V9.92792L27.5063 9.93072ZM44.0022 22.9236H49.8098V22.1479C49.0341 21.8035 48.5441 21.2267 48.5441 19.4178V0.701294L44.0022 2.2834V3.03105C44.7778 3.37547 45.237 3.95231 45.237 5.76123V19.4178C45.237 21.2295 44.7778 21.8035 44.0022 22.1479V22.9236ZM51.7335 22.9236H57.5411V22.1479C56.7654 21.8035 56.3062 21.2267 56.3062 19.4178V7.54496L51.7363 9.12706V9.87471C52.5119 10.2191 53.002 10.796 53.002 12.6049V19.4178C53.002 21.2295 52.5119 21.8035 51.7363 22.1479V22.9236H51.7335ZM52.1059 3.54629C52.1059 4.83997 53.17 5.87604 54.4357 5.87604C55.7014 5.87604 56.7654 4.83997 56.7654 3.54629C56.7654 2.2526 55.7294 1.21653 54.4357 1.21653C53.142 1.21653 52.1059 2.2526 52.1059 3.54629ZM66.6221 7.83057C61.9374 7.83057 59.0028 10.936 59.0028 15.6207C59.0028 20.3054 61.8478 23.2092 66.3337 23.2092C70.8196 23.2092 73.953 20.0758 73.953 15.3603C73.953 10.6448 71.108 7.82777 66.6221 7.82777V7.83057ZM66.5913 22.1199C64.2923 22.1199 62.797 19.5046 62.797 15.1615C62.797 11.3084 64.0627 8.92265 66.2749 8.92265C68.6046 8.92265 70.1559 11.5688 70.1559 15.7943C70.1559 19.7902 68.7754 22.1199 66.5913 22.1199ZM83.0396 7.83057C78.3549 7.83057 75.4203 10.936 75.4203 15.6207C75.4203 20.1906 78.2653 23.2092 82.7232 23.2092C87.1811 23.2092 90.3705 20.0758 90.3705 15.3603C90.3705 10.6448 87.4667 7.82777 83.0396 7.82777V7.83057ZM83.0116 22.1199C80.7126 22.1199 79.1893 19.5046 79.1893 15.1615C79.1893 11.3084 80.483 8.92265 82.6672 8.92265C84.9969 8.92265 86.5482 11.5688 86.5482 15.7943C86.5482 19.7902 85.1957 22.1199 83.0116 22.1199Z" fill="#172D2D"/>
<rect x="98.1074" y="0.5" width="51.4031" height="23" rx="11.5" stroke="#96A3A1"/>
<path d="M133.062 14.6079L134.726 14.5439C134.838 15.3919 135.478 15.8239 136.454 15.8239C137.158 15.8239 137.734 15.5839 137.734 15.0719C137.734 14.5919 137.414 14.3839 136.71 14.2719L135.59 14.0799C134.086 13.8399 133.254 13.2799 133.254 11.9679C133.254 10.6239 134.39 9.69592 136.182 9.69592C138.134 9.69592 139.302 10.5759 139.431 12.1439L137.847 12.2079C137.719 11.4079 137.175 11.0079 136.167 11.0079C135.478 11.0079 135.03 11.3119 135.03 11.7919C135.03 12.1759 135.286 12.3999 135.799 12.4799L137.142 12.7039C138.63 12.9439 139.51 13.5679 139.51 14.8959C139.51 16.3359 138.262 17.1359 136.438 17.1359C134.598 17.1359 133.19 16.3359 133.062 14.6079Z" fill="#24302F"/>
<path d="M126.713 13.28V13.552C126.713 14.848 127.481 15.632 128.569 15.632C129.785 15.632 130.409 14.752 130.409 13.424C130.409 12.08 129.785 11.2 128.569 11.2C127.481 11.2 126.713 12 126.713 13.28ZM126.633 15.584L126.281 16.944H124.809V6.86401H126.729V11.248C127.049 10.384 127.897 9.69601 129.161 9.69601C131.241 9.69601 132.345 11.344 132.345 13.424C132.345 15.504 131.241 17.136 129.129 17.136C127.897 17.136 127.001 16.464 126.633 15.584Z" fill="#24302F"/>
<path d="M120.938 13.8879V13.7119L119.61 13.9999C118.778 14.1759 118.186 14.3199 118.186 15.0239C118.186 15.5039 118.554 15.7919 119.162 15.7919C120.17 15.7919 120.938 15.0239 120.938 13.8879ZM122.81 12.4159V15.2319C122.81 15.5999 123.002 15.7759 123.306 15.7759C123.498 15.7759 123.69 15.7279 123.898 15.6319V16.6559C123.594 16.8959 123.21 17.1039 122.57 17.1039C121.77 17.1039 121.258 16.6399 121.082 15.8719C120.682 16.6879 119.722 17.1199 118.682 17.1199C117.21 17.1199 116.314 16.3839 116.314 15.1679C116.314 13.8239 117.402 13.2639 119.002 12.9439L120.938 12.5599V12.3999C120.938 11.6159 120.522 11.1359 119.706 11.1359C118.906 11.1359 118.474 11.6159 118.314 12.3039L116.57 12.1439C116.81 10.7039 117.914 9.69592 119.786 9.69592C121.61 9.69592 122.81 10.5599 122.81 12.4159Z" fill="#24302F"/>
<path d="M108.107 6.86401H110.107V15.28H115.435V16.944H108.107V6.86401Z" fill="#24302F"/>
</svg>
