<svg width="16" height="16" viewBox="0 0 16 16" fill="none" xmlns="http://www.w3.org/2000/svg">
<mask id="mask0_1319_26134" style="mask-type:luminance" maskUnits="userSpaceOnUse" x="0" y="0" width="16" height="16">
<path d="M16 0H0V16H16V0Z" fill="white"/>
</mask>
<g mask="url(#mask0_1319_26134)">
<path d="M11.1359 0.160156C11.3022 0.160156 11.4626 0.226126 11.5802 0.343746C11.6976 0.461326 11.7638 0.620916 11.7638 0.787106C11.7638 0.953286 11.6976 1.11288 11.5802 1.23047C11.4626 1.34809 11.3022 1.41406 11.1359 1.41406H10.5089V5.87695L15.3458 13.9404H15.3478C15.4619 14.1308 15.5237 14.3484 15.5265 14.5703C15.5292 14.7921 15.4727 15.011 15.3634 15.2041C15.2542 15.3968 15.0958 15.5572 14.9044 15.6689C14.7128 15.7806 14.4944 15.8398 14.2726 15.8398H1.72863C1.50691 15.8395 1.28917 15.7799 1.09777 15.668C0.906488 15.5561 0.747849 15.3959 0.638779 15.2031C0.529689 15.01 0.473788 14.791 0.476668 14.5693C0.479548 14.3476 0.541318 14.1306 0.655378 13.9404L5.49132 5.87695V1.41406H4.86437C4.69804 1.41406 4.53863 1.34807 4.42101 1.23047C4.30339 1.11284 4.23741 0.953446 4.23741 0.787106C4.23744 0.620796 4.30341 0.461346 4.42101 0.343746C4.53862 0.226196 4.69808 0.160156 4.86437 0.160156H11.1359ZM6.74618 1.41406V6.0508C6.74648 6.1643 6.71498 6.2758 6.65638 6.373L4.73839 9.5742C5.84916 9.6127 7.03618 9.9471 8.28328 10.5781C10.0612 11.478 11.3992 11.5568 12.34 11.3711L9.34388 6.373C9.28528 6.2759 9.25488 6.1642 9.25498 6.0508V1.41406H6.74618Z" fill="white"/>
</g>
</svg>
