<svg viewBox="0 0 12.375 12.375" fill="none" xmlns="http://www.w3.org/2000/svg" aria-hidden="true">
  <path d="M8.42188 1.82617L9.625 1.375L10.0762 0.150391C10.1191 0.0644531 10.2051 0 10.3125 0C10.4199 0 10.5059 0.0644531 10.5488 0.150391L11 1.375L12.2246 1.82617C12.3105 1.86914 12.375 1.95508 12.375 2.0625C12.375 2.16992 12.3105 2.25586 12.2246 2.29883L11 2.75L10.5488 3.97461C10.5059 4.06055 10.4199 4.125 10.3125 4.125C10.2051 4.125 10.1191 4.06055 10.0762 3.97461L9.625 2.75L8.42188 2.29883C8.31445 2.25586 8.25 2.16992 8.25 2.0625C8.25 1.95508 8.31445 1.86914 8.42188 1.82617ZM4.44727 2.25586H4.42578L5.58594 4.72656L8.05664 5.88672C8.16406 5.92969 8.25 6.05859 8.25 6.1875C8.25 6.31641 8.16406 6.44531 8.05664 6.50977L5.58594 7.64844L4.42578 10.1191C4.38281 10.2266 4.25391 10.3125 4.125 10.3125C3.99609 10.3125 3.86719 10.2266 3.80273 10.1191L2.66406 7.64844L0.193359 6.50977C0.0859375 6.44531 0 6.31641 0 6.1875C0 6.05859 0.0859375 5.92969 0.193359 5.86523L2.66406 4.72656L3.82422 2.25586C3.86719 2.14844 3.99609 2.0625 4.125 2.0625C4.25391 2.0625 4.38281 2.14844 4.44727 2.25586ZM8.9375 9.625L9.38867 8.42188C9.43164 8.31445 9.51758 8.25 9.625 8.25C9.73242 8.25 9.81836 8.31445 9.86133 8.42188L10.3125 9.625L11.5371 10.0762C11.623 10.1191 11.6875 10.2051 11.6875 10.3125C11.6875 10.4199 11.623 10.5059 11.5371 10.5488L10.3125 11L9.86133 12.2246C9.81836 12.3105 9.73242 12.375 9.625 12.375C9.51758 12.375 9.43164 12.3105 9.38867 12.2246L8.9375 11L7.73438 10.5488C7.62695 10.5059 7.5625 10.4199 7.5625 10.3125C7.5625 10.2051 7.62695 10.1191 7.73438 10.0762L8.9375 9.625Z" fill="currentColor"/>
</svg>
