<svg preserveAspectRatio="none" width="100%" height="100%" overflow="visible" viewBox="0 0 16 16" fill="none" xmlns="http://www.w3.org/2000/svg" aria-hidden="true">
  <path d="M8.8916 5.61523C8.67676 5.80859 8.35449 5.80859 8.16113 5.61523C7.94629 5.42188 7.94629 5.07812 8.16113 4.88477L10.3955 2.65039C10.5889 2.45703 10.9111 2.45703 11.1045 2.65039L13.3389 4.88477C13.5537 5.07812 13.5537 5.42188 13.3389 5.61523C13.1455 5.80859 12.8232 5.80859 12.6299 5.61523L11.2764 4.26172V12.9844C11.2764 13.2637 11.04 13.5 10.7607 13.5C10.46 13.5 10.2451 13.2637 10.2451 12.9844V4.26172L8.8916 5.61523ZM3.3916 10.3848L4.74512 11.7383V3.01562C4.74512 2.73633 4.95996 2.5 5.26074 2.5C5.54004 2.5 5.77637 2.73633 5.77637 3.01562V11.7383L7.12988 10.3848C7.32324 10.1914 7.64551 10.1914 7.83887 10.3848C8.05371 10.5781 8.05371 10.9219 7.83887 11.1152L5.60449 13.3496C5.41113 13.543 5.08887 13.543 4.89551 13.3496L2.66113 11.1152C2.44629 10.9219 2.44629 10.5781 2.66113 10.3848C2.85449 10.1914 3.17676 10.1914 3.37012 10.3848H3.3916Z" fill="currentColor"/>
</svg>
